#Comment line ignore any data following # character 
#Hierarchical Translation and Rotation (.htr) file 
[Header]	
#Header keywords are followed by a single value 
FileType HTR		#Single word string
DataType HTRS		#Translation followed by rotation and scale data
FileVersion 1		#integer
NumSegments 84		#integer
NumFrames 2		#integer
DataFrameRate 30		#integer, data frame rate in this file
EulerRotationOrder ZYX
CalibrationUnits mm
RotationUnits Degrees
GlobalAxisofGravity Y
BoneLengthAxis Y
ScaleFactor 1.00
[SegmentNames&Hierarchy]
#CHILD	PARENT
MASTER GLOBAL
root MASTER
chest root
L_mid_tent01 root
R_mid_tent01 root
spine01 root
Bip01_Neck chest
L_humerus chest
R_humerus chest
weapon_bone chest
Bip01_Head Bip01_Neck
eye_left_bone Bip01_Head
eye_right_bone Bip01_Head
L_forearm L_humerus
L_front_hand L_forearm
L_weapon_bone L_forearm
L_front_hand01_01 L_front_hand
L_front_hand02_01 L_front_hand
L_front_hand03_01 L_front_hand
L_front_hand01_02 L_front_hand01_01
L_front_hand02_02 L_front_hand02_01
L_front_hand03_02 L_front_hand03_01
R_forearm R_humerus
R_front_hand R_forearm
R_weapon_bone R_forearm
R_front_hand01_01 R_front_hand
R_front_hand02_01 R_front_hand
R_front_hand03_01 R_front_hand
R_front_hand01_02 R_front_hand01_01
R_front_hand02_02 R_front_hand02_01
R_front_hand03_02 R_front_hand03_01
null_rope01_connect L_mid_tent01
Rope1_Seg01 null_rope01_connect
Rope1_Seg02 Rope1_Seg01
Rope1_Seg03 Rope1_Seg02
Rope1_Seg04 Rope1_Seg03
Rope1_Seg05 Rope1_Seg04
Rope1_Seg06 Rope1_Seg05
Rope1_Seg07 Rope1_Seg06
Rope1_Seg09 Rope1_Seg07
L_mid_hand01 Rope1_Seg09
L_mid_hand02 Rope1_Seg09
L_mid_hand03 Rope1_Seg09
null_rope02_connect R_mid_tent01
Rope2_Seg01 null_rope02_connect
Rope2_Seg02 Rope2_Seg01
Rope2_Seg03 Rope2_Seg02
Rope2_Seg04 Rope2_Seg03
Rope2_Seg05 Rope2_Seg04
Rope2_Seg06 Rope2_Seg05
Rope2_Seg07 Rope2_Seg06
Rope2_Seg09 Rope2_Seg07
R_mid_hand01 Rope2_Seg09
R_mid_hand02 Rope2_Seg09
R_mid_hand03 Rope2_Seg09
spine02 spine01
spine03 spine02
pelvis spine03
null_rope03_connect pelvis
null_rope04_connect pelvis
Rope3_Seg01 null_rope03_connect
Rope3_Seg02 Rope3_Seg01
Rope3_Seg03 Rope3_Seg02
Rope3_Seg04 Rope3_Seg03
Rope3_Seg05 Rope3_Seg04
Rope3_Seg06 Rope3_Seg05
Rope3_Seg07 Rope3_Seg06
Rope3_Seg08 Rope3_Seg07
Rope3_Seg09 Rope3_Seg08
R_rear_hand01 Rope3_Seg09
R_rear_hand02 Rope3_Seg09
R_rear_hand03 Rope3_Seg09
Rope4_Seg01 null_rope04_connect
Rope4_Seg02 Rope4_Seg01
Rope4_Seg03 Rope4_Seg02
Rope4_Seg04 Rope4_Seg03
Rope4_Seg05 Rope4_Seg04
Rope4_Seg06 Rope4_Seg05
Rope4_Seg07 Rope4_Seg06
Rope4_Seg08 Rope4_Seg07
Rope4_Seg09 Rope4_Seg08
L_rear_hand01 Rope4_Seg09
L_rear_hand02 Rope4_Seg09
L_rear_hand03 Rope4_Seg09
[BasePosition]
#SegmentName Tx, Ty, Tz, Rx, Ry, Rz, BoneLength
MASTER 0.000000 0.000000 0.000000 -90.000000 0.000000 0.000000 10.000000 
root 0.000000 0.000000 0.000000 0.000000 0.000000 0.000000 10.000000 
chest 0.000000 0.000000 0.000000 0.000000 0.000000 0.000000 10.000000 
L_mid_tent01 0.000000 0.000000 0.000000 0.000000 0.000000 0.000000 10.000000 
R_mid_tent01 0.000000 0.000000 0.000000 0.000000 0.000000 0.000000 10.000000 
spine01 0.000000 0.000000 0.000000 0.000000 0.000000 0.000000 10.000000 
Bip01_Neck 0.000000 0.000000 0.000000 0.000000 0.000000 0.000000 10.000000 
L_humerus 0.000000 0.000000 0.000000 0.000000 0.000000 0.000000 10.000000 
R_humerus 0.000000 0.000000 0.000000 0.000000 0.000000 0.000000 10.000000 
weapon_bone 0.000000 0.000000 0.000000 0.000000 0.000000 0.000000 10.000000 
Bip01_Head 0.000000 0.000000 0.000000 0.000000 0.000000 0.000000 10.000000 
eye_left_bone 0.000000 0.000000 0.000000 0.000000 0.000000 0.000000 10.000000 
eye_right_bone 0.000000 0.000000 0.000000 0.000000 0.000000 0.000000 10.000000 
L_forearm 0.000000 0.000000 0.000000 0.000000 0.000000 0.000000 10.000000 
L_front_hand 0.000000 0.000000 0.000000 0.000000 0.000000 0.000000 10.000000 
L_weapon_bone 0.000000 0.000000 0.000000 0.000000 0.000000 0.000000 10.000000 
L_front_hand01_01 0.000000 0.000000 0.000000 0.000000 0.000000 0.000000 10.000000 
L_front_hand02_01 0.000000 0.000000 0.000000 0.000000 0.000000 0.000000 10.000000 
L_front_hand03_01 0.000000 0.000000 0.000000 0.000000 0.000000 0.000000 10.000000 
L_front_hand01_02 0.000000 0.000000 0.000000 0.000000 0.000000 0.000000 10.000000 
L_front_hand02_02 0.000000 0.000000 0.000000 0.000000 0.000000 0.000000 10.000000 
L_front_hand03_02 0.000000 0.000000 0.000000 0.000000 0.000000 0.000000 10.000000 
R_forearm 0.000000 0.000000 0.000000 0.000000 0.000000 0.000000 10.000000 
R_front_hand 0.000000 0.000000 0.000000 0.000000 0.000000 0.000000 10.000000 
R_weapon_bone 0.000000 0.000000 0.000000 0.000000 0.000000 0.000000 10.000000 
R_front_hand01_01 0.000000 0.000000 0.000000 0.000000 0.000000 0.000000 10.000000 
R_front_hand02_01 0.000000 0.000000 0.000000 0.000000 0.000000 0.000000 10.000000 
R_front_hand03_01 0.000000 0.000000 0.000000 0.000000 0.000000 0.000000 10.000000 
R_front_hand01_02 0.000000 0.000000 0.000000 0.000000 0.000000 0.000000 10.000000 
R_front_hand02_02 0.000000 0.000000 0.000000 0.000000 0.000000 0.000000 10.000000 
R_front_hand03_02 0.000000 0.000000 0.000000 0.000000 0.000000 0.000000 10.000000 
null_rope01_connect 0.000000 0.000000 0.000000 0.000000 0.000000 0.000000 10.000000 
Rope1_Seg01 0.000000 0.000000 0.000000 0.000000 0.000000 0.000000 10.000000 
Rope1_Seg02 0.000000 0.000000 0.000000 0.000000 0.000000 0.000000 10.000000 
Rope1_Seg03 0.000000 0.000000 0.000000 0.000000 0.000000 0.000000 10.000000 
Rope1_Seg04 0.000000 0.000000 0.000000 0.000000 0.000000 0.000000 10.000000 
Rope1_Seg05 0.000000 0.000000 0.000000 0.000000 0.000000 0.000000 10.000000 
Rope1_Seg06 0.000000 0.000000 0.000000 0.000000 0.000000 0.000000 10.000000 
Rope1_Seg07 0.000000 0.000000 0.000000 0.000000 0.000000 0.000000 10.000000 
Rope1_Seg09 0.000000 0.000000 0.000000 0.000000 0.000000 0.000000 10.000000 
L_mid_hand01 0.000000 0.000000 0.000000 0.000000 0.000000 0.000000 10.000000 
L_mid_hand02 0.000000 0.000000 0.000000 0.000000 0.000000 0.000000 10.000000 
L_mid_hand03 0.000000 0.000000 0.000000 0.000000 0.000000 0.000000 10.000000 
null_rope02_connect 0.000000 0.000000 0.000000 0.000000 0.000000 0.000000 10.000000 
Rope2_Seg01 0.000000 0.000000 0.000000 0.000000 0.000000 0.000000 10.000000 
Rope2_Seg02 0.000000 0.000000 0.000000 0.000000 0.000000 0.000000 10.000000 
Rope2_Seg03 0.000000 0.000000 0.000000 0.000000 0.000000 0.000000 10.000000 
Rope2_Seg04 0.000000 0.000000 0.000000 0.000000 0.000000 0.000000 10.000000 
Rope2_Seg05 0.000000 0.000000 0.000000 0.000000 0.000000 0.000000 10.000000 
Rope2_Seg06 0.000000 0.000000 0.000000 0.000000 0.000000 0.000000 10.000000 
Rope2_Seg07 0.000000 0.000000 0.000000 0.000000 0.000000 0.000000 10.000000 
Rope2_Seg09 0.000000 0.000000 0.000000 0.000000 0.000000 0.000000 10.000000 
R_mid_hand01 0.000000 0.000000 0.000000 0.000000 0.000000 0.000000 10.000000 
R_mid_hand02 0.000000 0.000000 0.000000 0.000000 0.000000 0.000000 10.000000 
R_mid_hand03 0.000000 0.000000 0.000000 0.000000 0.000000 0.000000 10.000000 
spine02 0.000000 0.000000 0.000000 0.000000 0.000000 0.000000 10.000000 
spine03 0.000000 0.000000 0.000000 0.000000 0.000000 0.000000 10.000000 
pelvis 0.000000 0.000000 0.000000 0.000000 0.000000 0.000000 10.000000 
null_rope03_connect 0.000000 0.000000 0.000000 0.000000 0.000000 0.000000 10.000000 
null_rope04_connect 0.000000 0.000000 0.000000 0.000000 0.000000 0.000000 10.000000 
Rope3_Seg01 0.000000 0.000000 0.000000 0.000000 0.000000 0.000000 10.000000 
Rope3_Seg02 0.000000 0.000000 0.000000 0.000000 0.000000 0.000000 10.000000 
Rope3_Seg03 0.000000 0.000000 0.000000 0.000000 0.000000 0.000000 10.000000 
Rope3_Seg04 0.000000 0.000000 0.000000 0.000000 0.000000 0.000000 10.000000 
Rope3_Seg05 0.000000 0.000000 0.000000 0.000000 0.000000 0.000000 10.000000 
Rope3_Seg06 0.000000 0.000000 0.000000 0.000000 0.000000 0.000000 10.000000 
Rope3_Seg07 0.000000 0.000000 0.000000 0.000000 0.000000 0.000000 10.000000 
Rope3_Seg08 0.000000 0.000000 0.000000 0.000000 0.000000 0.000000 10.000000 
Rope3_Seg09 0.000000 0.000000 0.000000 0.000000 0.000000 0.000000 10.000000 
R_rear_hand01 0.000000 0.000000 0.000000 0.000000 0.000000 0.000000 10.000000 
R_rear_hand02 0.000000 0.000000 0.000000 0.000000 0.000000 0.000000 10.000000 
R_rear_hand03 0.000000 0.000000 0.000000 0.000000 0.000000 0.000000 10.000000 
Rope4_Seg01 0.000000 0.000000 0.000000 0.000000 0.000000 0.000000 10.000000 
Rope4_Seg02 0.000000 0.000000 0.000000 0.000000 0.000000 0.000000 10.000000 
Rope4_Seg03 0.000000 0.000000 0.000000 0.000000 0.000000 0.000000 10.000000 
Rope4_Seg04 0.000000 0.000000 0.000000 0.000000 0.000000 0.000000 10.000000 
Rope4_Seg05 0.000000 0.000000 0.000000 0.000000 0.000000 0.000000 10.000000 
Rope4_Seg06 0.000000 0.000000 0.000000 0.000000 0.000000 0.000000 10.000000 
Rope4_Seg07 0.000000 0.000000 0.000000 0.000000 0.000000 0.000000 10.000000 
Rope4_Seg08 0.000000 0.000000 0.000000 0.000000 0.000000 0.000000 10.000000 
Rope4_Seg09 0.000000 0.000000 0.000000 0.000000 0.000000 0.000000 10.000000 
L_rear_hand01 0.000000 0.000000 0.000000 0.000000 0.000000 0.000000 10.000000 
L_rear_hand02 0.000000 0.000000 0.000000 0.000000 0.000000 0.000000 10.000000 
L_rear_hand03 0.000000 0.000000 0.000000 0.000000 0.000000 0.000000 10.000000 
#Beginning of Data. Separated by tabs
#Fr	Tx	Ty	Tz	Rx	Ry	Rz	SF
[MASTER]
12 -0.000360 2401.245605 577.535645 0.001660 0.001660 0.001660 2469.722168
13 -0.000392 2612.425537 494.603638 0.001660 0.001660 0.001660 2658.834229
[root]
12 2.363193 -76.689903 1407.461182 -96.411964 -35.577095 -89.875061 1409.550903
13 11.443949 -78.213196 1352.413574 -97.467598 -35.575108 -89.875206 1354.721558
[chest]
12 -84.512650 -34.090519 0.000000 0.327691 0.426817 177.214828 91.129311
13 -84.512650 -34.090519 0.000000 0.817593 0.363698 178.363708 91.129311
[L_mid_tent01]
12 27.299425 22.177561 -249.918274 0.334157 7.059430 70.727356 252.381149
13 27.299417 22.177567 -249.918274 -0.053957 9.925671 70.102890 252.381149
[R_mid_tent01]
12 23.228794 24.509907 226.238495 168.912964 -19.491768 70.963928 228.744751
13 23.228794 24.509907 226.238495 169.396057 -20.819630 68.974274 228.744751
[spine01]
12 -0.361383 -0.195265 0.000000 0.001845 0.001451 13.654368 0.410763
13 -0.361383 -0.195265 0.000000 0.001845 0.001451 13.654368 0.410763
[Bip01_Neck]
12 165.484543 71.581718 0.000119 176.643677 -1.657967 43.431915 180.302734
13 165.484543 71.581718 0.000119 176.643677 -1.657967 43.431911 180.302734
[L_humerus]
12 -13.983130 -135.272980 -120.471481 145.583588 76.082642 -123.205849 181.680161
13 -13.983130 -135.272980 -120.471481 141.670868 77.334846 -127.226479 181.680161
[R_humerus]
12 -13.983309 -135.273102 125.287651 -170.986588 -70.610451 -94.054443 184.909012
13 -13.983309 -135.273102 125.287651 -170.569778 -71.500435 -94.495399 184.909012
[weapon_bone]
12 235.964890 -300.705902 0.000000 0.000000 -89.951546 -128.212341 382.234833
13 235.964890 -300.705902 0.000000 0.000000 -89.951546 -128.212341 382.234833
[Bip01_Head]
12 213.433228 185.747070 11.366806 4.975276 7.009676 -43.820259 283.169434
13 213.450928 185.697311 12.008365 4.973759 6.865439 -43.828430 283.176605
[eye_left_bone]
12 -24.626970 125.451866 -64.772606 0.000000 -90.000000 -99.840431 143.318359
13 -24.626970 125.451866 -64.772606 0.000000 -90.000000 -99.840431 143.318359
[eye_right_bone]
12 -24.626970 125.451866 64.327362 0.000000 -89.965736 80.156380 143.117676
13 -24.626970 125.451866 64.327362 0.000000 -89.965736 80.156380 143.117676
[L_forearm]
12 322.776093 0.000000 -0.000119 0.000119 -0.002344 -95.807457 322.776093
13 322.776093 0.000000 -0.000119 0.000119 -0.002344 -95.807457 322.776093
[L_front_hand]
12 241.149185 -0.042021 -3.300071 -178.667953 -1.835447 -27.422342 241.171753
13 241.149185 -0.042021 -3.300071 -178.667953 -1.835447 -27.422350 241.171753
[L_weapon_bone]
12 156.183838 0.000000 0.000000 0.000014 0.000007 0.000001 156.183838
13 156.183838 0.000000 0.000000 0.000014 0.000007 0.000001 156.183838
[L_front_hand01_01]
12 86.095154 20.947098 -0.655860 -0.322964 -0.505554 70.186295 88.609184
13 86.095154 20.947098 -0.655860 -0.304872 -0.514302 68.276070 88.609184
[L_front_hand02_01]
12 86.935165 -11.437475 24.513514 146.960190 -57.330456 -52.657890 91.046425
13 86.935165 -11.437475 24.513514 144.546585 -56.255680 -49.772907 91.046425
[L_front_hand03_01]
12 86.637497 -14.123976 -20.424902 -146.989075 55.546074 -54.434807 90.126129
13 86.637497 -14.123976 -20.424902 -144.732666 54.475910 -51.681892 90.126129
[L_front_hand01_02]
12 71.020905 -0.000179 0.000030 0.000316 -0.002326 -105.475128 71.020905
13 71.020905 -0.000179 0.000030 0.000315 -0.002326 -105.444061 71.020905
[L_front_hand02_02]
12 71.020927 -0.000119 0.000060 0.000316 -0.002326 -105.475128 71.020927
13 71.020927 -0.000119 0.000060 0.000315 -0.002326 -105.444061 71.020927
[L_front_hand03_02]
12 71.020905 -0.000060 0.000060 0.000316 -0.002326 -105.475128 71.020905
13 71.020905 -0.000060 0.000060 0.000315 -0.002326 -105.444061 71.020905
[R_forearm]
12 322.776428 -0.000060 0.000030 0.209504 0.012586 -94.339050 322.776428
13 322.776428 -0.000060 0.000030 0.209504 0.012586 -94.339058 322.776428
[R_front_hand]
12 238.847015 -0.006795 2.210259 -2.635299 -10.645460 -26.312500 238.857239
13 238.847015 -0.006795 2.210259 -2.635298 -10.645460 -26.312506 238.857239
[R_weapon_bone]
12 155.664093 0.002503 -0.000030 0.003487 0.001180 -90.988930 155.664078
13 155.664093 0.002503 -0.000030 0.003487 0.001180 -90.988930 155.664078
[R_front_hand01_01]
12 87.624611 14.231146 22.918642 -146.976166 -57.336147 52.779388 91.683487
13 87.624611 14.231146 22.918642 -144.302139 -56.138653 49.586014 91.683487
[R_front_hand02_01]
12 89.356956 14.367283 -19.491137 147.400665 55.711205 55.166904 92.579636
13 89.356956 14.367283 -19.491137 144.866989 54.526855 52.081070 92.579636
[R_front_hand03_01]
12 87.286232 -22.307278 -0.143439 0.123256 -0.437630 -70.429710 90.091743
13 87.286232 -22.307278 -0.143439 0.104166 -0.441299 -68.306496 90.091743
[R_front_hand01_02]
12 71.020905 0.000060 0.000119 0.002323 -0.000334 106.381714 71.020905
13 71.020905 0.000060 0.000119 0.002323 -0.000334 106.381714 71.020905
[R_front_hand02_02]
12 71.020844 -0.000030 -0.000119 0.002323 -0.000334 106.381714 71.020836
13 71.020844 -0.000030 -0.000119 0.002323 -0.000334 106.381714 71.020836
[R_front_hand03_02]
12 71.020905 0.000000 0.000030 0.002323 -0.000334 106.381714 71.020905
13 71.020905 0.000000 0.000030 0.002323 -0.000334 106.381714 71.020905
[null_rope01_connect]
12 328.732483 0.000000 -0.000238 -133.168945 -76.850739 -171.800995 328.732483
13 328.732483 0.000000 -0.000238 -133.392365 -72.948181 -170.903778 328.732483
[Rope1_Seg01]
12 0.000000 0.000000 0.000000 -96.042007 49.778774 -101.988495 0.000000
13 0.000000 0.000000 0.000000 -83.073059 44.717968 -98.090706 0.000000
[Rope1_Seg02]
12 139.999863 -0.000179 0.000000 -13.787082 1.357562 14.871610 139.999863
13 139.999863 -0.000179 0.000000 -17.721136 4.561669 13.321199 139.999863
[Rope1_Seg03]
12 139.999924 0.000060 -0.000060 -9.080633 -2.026911 18.938513 139.999924
13 139.999924 0.000060 -0.000060 -11.913622 1.601075 16.372534 139.999924
[Rope1_Seg04]
12 139.999924 -0.000060 -0.000119 -4.452613 -4.420818 17.997326 139.999924
13 139.999924 -0.000060 -0.000119 -6.071819 -2.482886 16.251638 139.999924
[Rope1_Seg05]
12 139.999832 0.000119 -0.000060 -0.467462 -8.113420 8.212792 139.999832
13 139.999832 0.000119 -0.000060 -0.646767 -10.428147 10.519373 139.999832
[Rope1_Seg06]
12 139.999954 0.000119 -0.000060 -0.172348 -6.255552 3.999106 139.999954
13 139.999954 0.000119 -0.000060 -0.161887 -6.500422 5.670239 139.999954
[Rope1_Seg07]
12 139.999985 0.000060 0.000000 -0.123701 -3.433959 3.355579 139.999985
13 139.999985 0.000060 0.000000 -0.093161 -3.212116 3.557241 139.999985
[Rope1_Seg09]
12 121.602913 0.000119 -0.000089 -89.793175 -1.359789 0.847147 121.602913
13 121.602913 0.000119 -0.000089 -89.793175 -1.359789 0.847147 121.602913
[L_mid_hand01]
12 103.859421 1.038730 8.195221 112.987701 -50.601227 -18.681456 104.187431
13 103.859421 1.038730 8.195221 111.216118 -46.770245 -16.325294 104.187431
[L_mid_hand02]
12 105.572853 -4.139662 -10.864139 -153.018723 36.866009 -49.082401 106.211075
13 105.572853 -4.139662 -10.864139 -150.384232 34.904892 -44.592522 106.211075
[L_mid_hand03]
12 104.641464 17.579376 -3.913581 -11.755013 14.733717 54.618225 106.179977
13 104.641464 17.579376 -3.913581 -12.781255 13.855397 50.452671 106.179977
[null_rope02_connect]
12 328.732849 0.000179 -0.000119 -80.662216 71.116684 43.765301 328.732849
13 328.732849 0.000179 -0.000119 -79.465553 70.740227 43.120510 328.732849
[Rope2_Seg01]
12 0.000067 0.000115 0.000037 -99.075607 22.828018 -36.339455 0.000138
13 0.000066 0.000112 0.000041 -13.514044 12.010774 -36.949135 0.000136
[Rope2_Seg02]
12 139.999741 -0.000060 -0.000119 -25.570051 -2.027368 7.150720 139.999756
13 139.999741 -0.000060 -0.000119 -63.652275 7.741585 3.272449 139.999756
[Rope2_Seg03]
12 140.000107 0.000030 0.000000 -11.658416 -7.480083 8.614033 140.000107
13 140.000107 0.000030 0.000000 -45.870682 0.820376 12.392487 140.000107
[Rope2_Seg04]
12 139.999802 0.000000 -0.000060 -4.712342 -8.519601 6.903367 139.999802
13 139.999802 0.000000 -0.000060 -11.648740 -6.566449 8.765562 139.999802
[Rope2_Seg05]
12 139.999985 -0.000060 0.000119 -12.739794 -35.926777 27.708435 139.999985
13 139.999985 -0.000060 0.000119 -11.407109 -32.114006 23.862640 139.999985
[Rope2_Seg06]
12 139.999893 -0.000030 -0.000119 -2.756274 -23.053278 13.562357 139.999893
13 139.999893 -0.000030 -0.000119 -6.512446 -34.113068 20.268867 139.999893
[Rope2_Seg07]
12 139.999893 0.000060 -0.000060 -0.039544 -6.710818 3.745055 139.999893
13 139.999893 0.000060 -0.000060 -0.229980 -9.484160 5.004859 139.999893
[Rope2_Seg09]
12 121.338966 0.000089 -0.000060 33.793236 -1.359788 -0.847141 121.338966
13 121.338966 0.000089 -0.000060 33.793236 -1.359788 -0.847141 121.338966
[R_mid_hand01]
12 104.680779 11.144459 -10.335981 -25.192726 41.648338 57.439434 105.778534
13 104.680779 11.144459 -10.335981 -27.387493 40.402237 54.098232 105.778534
[R_mid_hand02]
12 104.070427 2.443552 8.231699 60.800945 -59.436069 26.232430 104.424065
13 104.070427 2.443552 8.231699 62.946606 -56.952805 23.709984 104.424065
[R_mid_hand03]
12 106.028137 -11.221827 -5.996406 -174.361145 14.799507 -66.152634 106.788818
13 106.028137 -11.221827 -5.996406 -173.630432 14.503003 -63.260223 106.788818
[spine02]
12 129.756927 0.001550 0.000119 -1.023899 -3.926964 6.770991 129.756927
13 129.756927 0.001550 0.000119 -1.023899 -3.926965 6.770992 129.756927
[spine03]
12 78.613983 0.087358 -4.898872 1.040680 4.146419 4.212375 78.766518
13 78.613998 0.087351 -4.898872 1.040681 4.146420 4.212376 78.766533
[pelvis]
12 169.435242 0.051022 0.000000 0.019518 -0.190233 -10.721436 169.435257
13 169.435242 0.051022 0.000000 0.019518 -0.190233 -10.721436 169.435257
[null_rope03_connect]
12 -1.257226 -2.466202 137.391083 -145.451263 -83.353798 -102.800423 137.418976
13 -1.257226 -2.466202 137.391083 -145.258041 -82.303230 -102.995941 137.418976
[null_rope04_connect]
12 -1.259640 -2.480268 -137.844437 -145.451263 -83.353798 -102.800423 137.872513
13 -1.259640 -2.480268 -137.844437 -145.258041 -82.303230 -102.995941 137.872513
[Rope3_Seg01]
12 -0.000014 -0.000207 -0.000153 -147.585587 -38.685383 -55.233799 0.000257
13 -0.000014 -0.000219 -0.000153 -148.346771 -39.752808 -54.914555 0.000267
[Rope3_Seg02]
12 139.999924 -0.000119 0.000060 -14.367945 -3.884415 -31.390181 139.999924
13 139.999924 -0.000119 0.000060 -12.117471 -5.610405 -30.619219 139.999924
[Rope3_Seg03]
12 139.999924 -0.000119 0.000119 -8.468642 2.108629 -6.491694 139.999924
13 139.999924 -0.000119 0.000119 -6.842136 1.054651 -5.950184 139.999924
[Rope3_Seg04]
12 139.999924 0.000119 0.000000 -22.144430 2.824530 -13.498655 139.999924
13 139.999924 0.000119 0.000000 -18.588158 1.405253 -12.042068 139.999924
[Rope3_Seg05]
12 139.999924 -0.000238 0.000060 -77.834831 18.150101 -32.204590 139.999924
13 139.999924 -0.000238 0.000060 -81.734871 12.576680 -30.737371 139.999924
[Rope3_Seg06]
12 139.999893 -0.000119 -0.000060 -13.484634 24.463728 6.622951 139.999893
13 139.999893 -0.000119 -0.000060 -17.934078 26.272968 5.939281 139.999893
[Rope3_Seg07]
12 139.999771 0.000060 -0.000119 -1.743426 8.840441 5.042982 139.999771
13 139.999771 0.000060 -0.000119 -2.078146 9.373456 5.779729 139.999771
[Rope3_Seg08]
12 139.999985 -0.000060 0.000000 -0.274729 4.308001 2.654239 139.999985
13 139.999985 -0.000060 0.000000 -0.376083 4.554751 3.075647 139.999985
[Rope3_Seg09]
12 90.185997 -0.000179 -0.000060 89.793228 -1.359877 -0.847183 90.185997
13 90.185997 -0.000179 -0.000060 89.793228 -1.359877 -0.847183 90.185997
[R_rear_hand01]
12 103.366196 -6.073594 -10.757982 -172.199188 23.472191 -60.427750 104.101845
13 103.366196 -6.073594 -10.757982 -170.781250 22.977589 -56.830040 104.101845
[R_rear_hand02]
12 100.509819 12.039542 -7.992327 -21.205954 33.223911 57.720810 101.543350
13 100.509819 12.039542 -7.992327 -23.185047 31.960989 54.046936 101.543350
[R_rear_hand03]
12 101.539970 5.215704 5.435467 78.624985 -59.850563 13.735100 101.819031
13 101.539970 5.215704 5.435467 79.639084 -56.567936 12.539787 101.819031
[Rope4_Seg01]
12 -0.000067 -0.000144 0.000000 47.109776 -33.440147 -94.200256 0.000159
13 -0.000066 -0.000140 0.000000 46.328632 -32.190994 -92.689316 0.000155
[Rope4_Seg02]
12 139.999985 0.000060 0.000119 3.100765 -30.471052 9.281765 139.999985
13 139.999985 0.000060 0.000119 2.614047 -31.511173 9.547587 139.999985
[Rope4_Seg03]
12 139.999924 0.000000 -0.000238 19.143179 -33.824703 18.400408 139.999924
13 139.999924 0.000000 -0.000238 18.707890 -34.047691 18.469336 139.999924
[Rope4_Seg04]
12 139.999985 0.000000 0.000119 17.784266 -12.936387 13.617885 139.999985
13 139.999985 0.000000 0.000119 15.633454 -11.497740 12.045763 139.999985
[Rope4_Seg05]
12 139.999802 -0.000060 -0.000119 34.483219 -23.763966 43.960674 139.999802
13 139.999802 -0.000060 -0.000119 34.947205 -24.322800 37.327045 139.999802
[Rope4_Seg06]
12 139.999924 0.000000 0.000060 12.804836 6.340440 33.965019 139.999924
13 139.999924 0.000000 0.000060 17.484297 3.666247 39.854641 139.999924
[Rope4_Seg07]
12 139.999802 0.000000 0.000000 0.999780 3.051804 7.127735 139.999802
13 139.999802 0.000000 0.000000 1.410131 3.437987 8.076683 139.999802
[Rope4_Seg08]
12 139.999924 0.000000 0.000119 -1.277885 1.458252 3.270251 139.999924
13 139.999924 0.000000 0.000119 -1.165012 1.621611 3.581823 139.999924
[Rope4_Seg09]
12 90.185791 0.000060 0.000060 -135.617828 2.228885 0.850567 90.185791
13 90.185791 0.000060 0.000060 -135.617828 2.228885 0.850567 90.185791
[L_rear_hand01]
12 101.696655 -8.392275 -7.654577 -30.967802 -24.555588 142.276382 102.329041
13 101.696655 -8.392275 -7.654577 -31.684452 -23.583008 144.025742 102.329041
[L_rear_hand02]
12 102.726799 -1.568258 5.773216 82.497200 40.606583 171.238342 102.900848
13 102.726799 -1.568258 5.773216 82.701553 38.753956 171.553619 102.900848
[L_rear_hand03]
12 104.552910 9.721220 -10.420293 -164.603775 -19.511108 -140.104065 105.519653
13 104.552910 9.721220 -10.420293 -163.975403 -19.004421 -142.009338 105.519653
